<?xml version="1.0" encoding="UTF-8"?>
<svg width="500px" height="500px" viewBox="0 0 500 500" version="1.1" xmlns="http://www.w3.org/2000/svg" xmlns:xlink="http://www.w3.org/1999/xlink">
    <!-- Generator: Sketch 40.3 (33839) - http://www.bohemiancoding.com/sketch -->
    <title>logo_image</title>
    <desc>Created with Sketch.</desc>
    <defs>
        <polygon id="path-1" points="0.0001 500 492.1411 500 492.1411 0.0002 0.0001 0.0002 0.0001 500"></polygon>
    </defs>
    <g id="+-My-Listings" stroke="none" stroke-width="1" fill="none" fill-rule="evenodd">
        <g id="Desktop-HD" transform="translate(-470.000000, -262.000000)">
            <g id="logo_image" transform="translate(470.000000, 262.000000)">
                <g id="Group-3">
                    <mask id="mask-2" fill="white">
                        <use xlink:href="#path-1"></use>
                    </mask>
                    <g id="Clip-2"></g>
                    <path d="M124.9141,249.9892 L187.4871,187.4322 L312.6331,187.4322 L375.2151,249.9942 L250.0601,375.0992 L124.9141,249.9892 Z M340.1681,465.1822 L317.7701,442.7902 L310.1311,435.1522 L308.9481,433.9682 L344.3561,398.5682 L331.8681,386.0792 L296.4571,421.4852 L295.1121,420.1382 L288.8891,413.9152 L286.9091,411.9372 L265.0781,390.1152 L390.2371,265.0022 L405.2481,249.9942 L486.6531,168.6232 C486.3731,167.8222 486.1211,167.0042 485.8361,166.2012 C483.5321,159.7062 480.9301,153.3612 478.1231,147.1282 C474.5161,139.0992 470.5491,131.2782 466.1271,123.7332 C461.8271,116.3932 457.1101,109.3402 452.1081,102.5022 C440.6781,86.8832 427.5281,72.6152 412.8561,60.0402 C389.1661,39.7222 361.6331,23.8132 331.5081,13.4252 C325.4831,11.3492 319.3891,9.4162 313.1641,7.7962 L465.3251,159.9182 L435.2881,189.9392 L435.2431,189.9042 L433.7371,191.4062 L242.6881,0.0002 C234.8931,0.2422 227.1941,0.8082 219.5891,1.7282 L421.6701,203.6942 L413.8031,211.4132 L390.2251,234.9722 L168.5861,13.3962 C138.4561,23.7632 110.9421,39.7362 87.2521,60.0402 L185.2061,60.0402 L209.2551,84.0832 L230.2831,105.0972 L46.1061,105.0972 C42.4161,110.3062 38.9121,115.6502 35.6081,121.1332 L246.6121,121.0562 L257.2541,132.0692 L291.3971,166.2012 L14.2021,166.2012 C13.9311,166.9792 13.6941,167.7712 13.4231,168.5542 C11.3581,174.5542 9.4811,180.6462 7.8661,186.8442 C7.8111,187.0362 7.7821,187.2392 7.7311,187.4322 L40.3511,187.4322 L40.3781,187.4082 L69.7481,187.4322 L0.0001,257.1622 C0.2221,264.9772 0.8081,272.7002 1.7231,280.3222 L94.7841,187.3842 L157.4561,187.4322 L100.7181,244.1462 L13.4051,331.4372 C38.4261,404.0862 95.9701,461.5082 168.6261,486.5242 C174.6321,488.5962 180.7061,490.5122 186.9141,492.1252 L34.8081,340.0712 L58.0131,316.8772 L66.1441,308.7422 L257.4521,500.0002 C265.2501,499.7712 272.9591,499.1932 280.5671,498.2752 L78.5911,296.3782 L79.8911,295.0582 L79.8661,295.0272 L82.9051,291.9862 L82.9191,291.9722 L109.8951,265.0022 L331.4321,486.4902 L331.5531,486.6082 C341.4341,483.2072 350.9961,479.1292 360.2741,474.5592 C360.2951,474.5552 360.3151,474.5442 360.3361,474.5302 C365.6181,471.9342 370.7601,469.0942 375.8251,466.1302 C384.8661,460.8612 393.5861,455.1052 401.8561,448.7692 C402.2581,448.4712 402.6531,448.1482 403.0531,447.8362 C406.7071,445.0052 410.2661,442.0742 413.7521,439.0492 C414.4521,438.4432 415.1551,437.8482 415.8501,437.2332 C419.4321,434.0602 422.9321,430.7882 426.3311,427.4162 C426.5781,427.1622 426.8441,426.9272 427.0901,426.6812 C430.6881,423.0692 434.1681,419.3492 437.5431,415.5282 C438.3381,414.6242 439.0981,413.6802 439.8891,412.7672 C442.3071,409.9452 444.6631,407.0812 446.9561,404.1602 C448.0571,402.7522 449.1371,401.3432 450.2091,399.9152 C452.1841,397.2832 454.0901,394.6072 455.9531,391.8992 C456.9731,390.4252 458.0141,388.9762 458.9951,387.4882 C461.5731,383.5782 464.0631,379.5942 466.4221,375.5412 C467.2781,374.0722 468.0491,372.5582 468.8711,371.0752 C470.4441,368.2522 471.9831,365.4082 473.4401,362.5242 C474.4241,360.5682 475.3641,358.5902 476.2951,356.6042 C476.8891,355.3502 477.5381,354.1252 478.1061,352.8592 C478.9421,351.0232 479.7001,349.1532 480.5001,347.3012 C480.9361,346.2692 481.3951,345.2482 481.8211,344.2172 C483.5571,340.0162 485.2291,335.7742 486.7151,331.4492 L486.6101,331.3532 C488.6571,325.4072 490.5411,319.3932 492.1411,313.2622 L340.1681,465.1822 Z" id="Fill-1" fill="#FEFEFE" mask="url(#mask-2)"></path>
                </g>
                <polygon id="Fill-4" fill="#FEFEFE" points="348.4302 369.5224 360.9162 382.0094 396.3422 346.5934 383.8562 334.1104"></polygon>
                <polygon id="Fill-6" fill="#FEFEFE" points="412.9419 330 448.3679 294.58 435.8759 282.102 400.4499 317.521"></polygon>
                <g id="Group-10" transform="translate(452.000000, 219.000000)" fill="#FEFEFE">
                    <path d="M5.8911,52.4082 L12.7211,59.2342 L48.0001,23.9612 C47.7781,16.1192 47.2041,8.3652 46.2841,0.7162 L0.2311,46.7502 L5.8911,52.4082 Z" id="Fill-8"></path>
                </g>
            </g>
        </g>
    </g>
</svg>